<svg id="visual" viewBox="0 0 900 600" width="900" height="600" xmlns="http://www.w3.org/2000/svg" xmlns:xlink="http://www.w3.org/1999/xlink" version="1.1"><path d="M0 421L21.5 421C43 421 86 421 128.8 423C171.7 425 214.3 429 257.2 421.8C300 414.7 343 396.3 385.8 388.2C428.7 380 471.3 382 514.2 390.5C557 399 600 414 642.8 410C685.7 406 728.3 383 771.2 382C814 381 857 402 878.5 412.5L900 423L900 601L878.5 601C857 601 814 601 771.2 601C728.3 601 685.7 601 642.8 601C600 601 557 601 514.2 601C471.3 601 428.7 601 385.8 601C343 601 300 601 257.2 601C214.3 601 171.7 601 128.8 601C86 601 43 601 21.5 601L0 601Z" fill="#53b266"></path><path d="M0 442L21.5 443.3C43 444.7 86 447.3 128.8 443.2C171.7 439 214.3 428 257.2 426.5C300 425 343 433 385.8 439.2C428.7 445.3 471.3 449.7 514.2 448.2C557 446.7 600 439.3 642.8 441.3C685.7 443.3 728.3 454.7 771.2 454.3C814 454 857 442 878.5 436L900 430L900 601L878.5 601C857 601 814 601 771.2 601C728.3 601 685.7 601 642.8 601C600 601 557 601 514.2 601C471.3 601 428.7 601 385.8 601C343 601 300 601 257.2 601C214.3 601 171.7 601 128.8 601C86 601 43 601 21.5 601L0 601Z" fill="#357b4c"></path><path d="M0 503L21.5 502.8C43 502.7 86 502.3 128.8 506.3C171.7 510.3 214.3 518.7 257.2 518.7C300 518.7 343 510.3 385.8 502.8C428.7 495.3 471.3 488.7 514.2 484C557 479.3 600 476.7 642.8 476.8C685.7 477 728.3 480 771.2 489.2C814 498.3 857 513.7 878.5 521.3L900 529L900 601L878.5 601C857 601 814 601 771.2 601C728.3 601 685.7 601 642.8 601C600 601 557 601 514.2 601C471.3 601 428.7 601 385.8 601C343 601 300 601 257.2 601C214.3 601 171.7 601 128.8 601C86 601 43 601 21.5 601L0 601Z" fill="#1f4830"></path><path d="M0 521L21.5 519.3C43 517.7 86 514.3 128.8 521.7C171.7 529 214.3 547 257.2 547.2C300 547.3 343 529.7 385.8 525.8C428.7 522 471.3 532 514.2 536.5C557 541 600 540 642.8 541.2C685.7 542.3 728.3 545.7 771.2 547C814 548.3 857 547.7 878.5 547.3L900 547L900 601L878.5 601C857 601 814 601 771.2 601C728.3 601 685.7 601 642.8 601C600 601 557 601 514.2 601C471.3 601 428.7 601 385.8 601C343 601 300 601 257.2 601C214.3 601 171.7 601 128.8 601C86 601 43 601 21.5 601L0 601Z" fill="#0d1a13"></path></svg>